<?xml version="1.0" encoding="UTF-8"?>
<svg id="Layer_1" xmlns="http://www.w3.org/2000/svg" viewBox="0 0 551.07 221.22">
  <defs>
    <style>
      .cls-1 {
        stroke: #231f20;
      }

      .cls-1, .cls-2, .cls-3, .cls-4, .cls-5, .cls-6, .cls-7 {
        stroke-miterlimit: 10;
      }

      .cls-1, .cls-8 {
        fill: none;
      }

      .cls-9 {
        font-size: 12px;
        letter-spacing: 0em;
      }

      .cls-2 {
        fill: #e78424;
      }

      .cls-2, .cls-3, .cls-6, .cls-7 {
        stroke-width: 2px;
      }

      .cls-2, .cls-6 {
        stroke: #000001;
      }

      .cls-3 {
        fill: #442d7c;
        stroke: #452d7c;
      }

      .cls-3, .cls-10, .cls-6 {
        fill-rule: evenodd;
      }

      .cls-11 {
        font-size: 13px;
        letter-spacing: 0em;
      }

      .cls-11, .cls-12, .cls-13, .cls-14 {
        font-family: ArialMT, Arial;
      }

      .cls-11, .cls-15, .cls-13, .cls-14 {
        fill: #f1f2f2;
      }

      .cls-16 {
        font-size: 11px;
        letter-spacing: 0em;
      }

      .cls-4 {
        stroke-width: 3px;
      }

      .cls-4, .cls-5 {
        stroke: #524fa1;
      }

      .cls-4, .cls-5, .cls-17 {
        fill: #524fa1;
      }

      .cls-5 {
        stroke-width: 4px;
      }

      .cls-12 {
        fill: #000001;
        letter-spacing: 0em;
      }

      .cls-12, .cls-14 {
        font-size: 15px;
      }

      .cls-10 {
        fill: #d5533a;
        isolation: isolate;
      }

      .cls-8 {
        stroke: #323232;
        stroke-linejoin: round;
        stroke-width: 4.5px;
      }

      .cls-18 {
        fill: #cbdb2a;
      }

      .cls-6 {
        fill: #ec4924;
      }

      .cls-7 {
        fill: #00addc;
        stroke: #00addc;
      }

      .cls-19 {
        fill: #82d4f1;
      }

      .cls-14 {
        letter-spacing: 0em;
      }
    </style>
  </defs>
  <rect class="cls-19" x="2.22" y="2.86" width="547.2" height="216" rx="18" ry="18"/>
  <g>
    <circle class="cls-2" cx="45.8" cy="101.88" r="28.8"/>
    <g>
      <line class="cls-8" x1="32.42" y1="88.08" x2="52.38" y2="88.08"/>
      <line class="cls-8" x1="24.82" y1="97.68" x2="44.78" y2="97.68"/>
      <line class="cls-8" x1="24.82" y1="110.48" x2="44.78" y2="110.48"/>
      <line class="cls-8" x1="44.82" y1="103.28" x2="64.78" y2="103.28"/>
      <line class="cls-8" x1="42.82" y1="115.68" x2="62.78" y2="115.68"/>
      <line class="cls-8" x1="46.82" y1="94.48" x2="66.78" y2="94.48"/>
    </g>
  </g>
  <g>
    <path class="cls-3" d="M94.7,82.6c0-5.26,4.3-9.52,9.6-9.52h38.4c5.3,0,9.6,4.26,9.6,9.52v38.57c0,5.26-4.3,9.52-9.6,9.52h-38.4c-5.3,0-9.6-4.26-9.6-9.52v-38.57Z"/>
    <text class="cls-14" transform="translate(94.88 105.88)"><tspan x="0" y="0">rqcfilter2</tspan></text>
  </g>
  <path class="cls-6" d="M90.88,102.22l-12.16,5.44c-.25.11-.52-.07-.52-.34v-10.88c0-.27.28-.45.52-.34l12.16,5.44c.29.13.29.55,0,.68Z"/>
  <path class="cls-6" d="M168.59,102.22l-12.16,5.44c-.25.11-.52-.07-.52-.34v-10.88c0-.27.28-.45.52-.34l12.16,5.44c.29.13.29.55,0,.68Z"/>
  <text class="cls-12" transform="translate(30.84 143.91)"><tspan x="0" y="0">Raw</tspan><tspan x="-6.63" y="18">Reads</tspan></text>
  <text class="cls-12" transform="translate(178.29 143.91)"><tspan x="0" y="0">Paired</tspan><tspan x="-11.62" y="18">non-rRNA</tspan><tspan x="-.02" y="36">Reads</tspan></text>
  <text class="cls-12" transform="translate(490.74 27.24)"><tspan x="0" y="0">GFF</tspan></text>
  <text class="cls-12" transform="translate(313.41 27.24)"><tspan x="0" y="0">Transcripts</tspan></text>
  <text class="cls-12" transform="translate(323.45 184.48)"><tspan x="0" y="0">Mapped</tspan><tspan x="5.4" y="18">Reads</tspan></text>
  <text class="cls-12" transform="translate(487.99 184.48)"><tspan x="0" y="0">Read</tspan><tspan x="-5.79" y="18">Counts</tspan></text>
  <g>
    <circle class="cls-2" cx="201.21" cy="101.88" r="28.8"/>
    <g>
      <line class="cls-8" x1="187.83" y1="88.08" x2="207.79" y2="88.08"/>
      <line class="cls-8" x1="180.23" y1="97.68" x2="200.19" y2="97.68"/>
      <line class="cls-8" x1="180.23" y1="110.48" x2="200.19" y2="110.48"/>
      <line class="cls-8" x1="200.23" y1="103.28" x2="220.19" y2="103.28"/>
      <line class="cls-8" x1="198.23" y1="115.68" x2="218.19" y2="115.68"/>
      <line class="cls-8" x1="202.23" y1="94.48" x2="222.19" y2="94.48"/>
    </g>
  </g>
  <g>
    <path class="cls-3" d="M243.77,41.98c0-5.26,4.3-9.52,9.6-9.52h38.4c5.3,0,9.6,4.26,9.6,9.52v38.57c0,5.26-4.3,9.52-9.6,9.52h-38.4c-5.3,0-9.6-4.26-9.6-9.52v-38.57Z"/>
    <text class="cls-13" transform="translate(251.29 50.83)"><tspan class="cls-9"><tspan x="0" y="0">de novo</tspan></tspan><tspan class="cls-9"><tspan x="-3.98" y="14.4">assembly</tspan></tspan><tspan class="cls-16"><tspan x="-7.35" y="27.6">(MEGAHIT)</tspan></tspan></text>
  </g>
  <path class="cls-10" d="M399.19,41.98c0-5.26,4.3-9.52,9.6-9.52h38.4c5.3,0,9.6,4.26,9.6,9.52v38.57c0,5.26-4.3,9.52-9.6,9.52h-38.4c-5.3,0-9.6-4.26-9.6-9.52v-38.57Z"/>
  <g>
    <path class="cls-15" d="M410.94,50.07v-8.59h1.17l4.51,6.74v-6.74h1.09v8.59h-1.17l-4.51-6.75v6.75h-1.09Z"/>
    <path class="cls-15" d="M419.56,50.07v-8.59h1.71l2.03,6.08c.19.57.32.99.41,1.27.1-.31.25-.77.46-1.38l2.06-5.98h1.53v8.59h-1.1v-7.19l-2.5,7.19h-1.03l-2.48-7.31v7.31h-1.1Z"/>
    <path class="cls-15" d="M429.56,50.07v-8.59h2.96c.67,0,1.18.04,1.53.12.49.11.91.32,1.26.62.45.38.79.87,1.02,1.47s.34,1.28.34,2.04c0,.65-.08,1.23-.23,1.73s-.35.92-.59,1.25-.5.59-.78.78-.62.33-1.03.43-.86.15-1.38.15h-3.1ZM430.7,49.05h1.83c.57,0,1.01-.05,1.33-.16s.58-.25.77-.45c.27-.27.48-.63.63-1.09s.23-1.01.23-1.66c0-.9-.15-1.59-.44-2.07s-.65-.81-1.07-.97c-.3-.12-.79-.18-1.47-.18h-1.8v6.56Z"/>
    <path class="cls-15" d="M444.33,47.06l1.14.29c-.24.93-.67,1.65-1.29,2.14s-1.38.74-2.27.74-1.68-.19-2.26-.57-1.02-.92-1.32-1.64-.45-1.48-.45-2.3c0-.89.17-1.67.51-2.34s.83-1.17,1.46-1.52,1.33-.52,2.08-.52c.86,0,1.58.22,2.17.66s.99,1.05,1.22,1.85l-1.12.26c-.2-.62-.49-1.08-.87-1.37s-.86-.43-1.43-.43c-.66,0-1.21.16-1.66.47s-.75.74-.93,1.27-.27,1.08-.27,1.65c0,.73.11,1.37.32,1.91s.54.95.99,1.22.94.4,1.46.4c.64,0,1.18-.18,1.62-.55s.74-.91.9-1.63Z"/>
    <path class="cls-15" d="M404.92,63.7c-.39.33-.77.57-1.13.7s-.75.21-1.16.21c-.68,0-1.21-.17-1.58-.5s-.55-.76-.55-1.28c0-.3.07-.58.21-.83s.32-.45.54-.61.48-.27.76-.35c.21-.05.52-.11.94-.16.85-.1,1.48-.22,1.88-.36,0-.14,0-.24,0-.28,0-.43-.1-.73-.3-.91-.27-.24-.67-.36-1.2-.36-.5,0-.86.09-1.1.26s-.41.48-.52.92l-1.03-.14c.09-.44.25-.8.46-1.07s.53-.48.93-.63.88-.22,1.41-.22.96.06,1.29.19.58.28.73.47.27.43.33.72c.04.18.05.5.05.97v1.41c0,.98.02,1.6.07,1.86s.13.51.27.75h-1.1c-.11-.22-.18-.47-.21-.77ZM404.83,61.35c-.38.16-.96.29-1.72.4-.43.06-.74.13-.92.21s-.32.19-.42.34-.15.32-.15.5c0,.28.11.52.32.7s.52.28.93.28.77-.09,1.08-.27.55-.42.7-.73c.11-.24.17-.59.17-1.05v-.39Z"/>
    <path class="cls-15" d="M407.51,64.47v-6.22h.95v.88c.46-.68,1.12-1.03,1.98-1.03.38,0,.72.07,1.04.2s.55.31.71.53.27.48.33.78c.04.2.06.54.06,1.03v3.83h-1.05v-3.79c0-.43-.04-.75-.12-.96s-.23-.38-.44-.51-.46-.19-.74-.19c-.45,0-.84.14-1.16.43s-.49.83-.49,1.62v3.4h-1.05Z"/>
    <path class="cls-15" d="M414.16,64.47v-6.22h.95v.88c.46-.68,1.12-1.03,1.98-1.03.38,0,.72.07,1.03.2s.55.31.71.53.27.48.33.78c.04.2.06.54.06,1.03v3.83h-1.05v-3.79c0-.43-.04-.75-.12-.96s-.23-.38-.44-.51-.45-.19-.74-.19c-.45,0-.84.14-1.16.43s-.49.83-.49,1.62v3.4h-1.05Z"/>
    <path class="cls-15" d="M420.42,61.36c0-1.15.32-2.01.96-2.56.54-.46,1.19-.69,1.96-.69.86,0,1.55.28,2.1.84s.81,1.33.81,2.32c0,.8-.12,1.43-.36,1.89s-.59.82-1.05,1.07-.96.38-1.5.38c-.87,0-1.58-.28-2.11-.84s-.8-1.36-.8-2.41ZM421.5,61.36c0,.8.17,1.39.52,1.79s.79.59,1.31.59.96-.2,1.31-.6.52-1.01.52-1.82c0-.77-.18-1.35-.53-1.75s-.78-.59-1.3-.59-.96.2-1.31.59-.52.99-.52,1.79Z"/>
    <path class="cls-15" d="M429.76,63.53l.15.93c-.3.06-.56.09-.8.09-.38,0-.68-.06-.89-.18s-.36-.28-.45-.48-.13-.61-.13-1.25v-3.58h-.77v-.82h.77v-1.54l1.05-.63v2.17h1.06v.82h-1.06v3.64c0,.3.02.49.06.58s.1.15.18.21.2.08.36.08c.12,0,.27-.01.46-.04Z"/>
    <path class="cls-15" d="M434.83,63.7c-.39.33-.77.57-1.13.7s-.75.21-1.16.21c-.68,0-1.21-.17-1.58-.5s-.55-.76-.55-1.28c0-.3.07-.58.21-.83s.32-.45.54-.61.48-.27.76-.35c.21-.05.52-.11.94-.16.85-.1,1.48-.22,1.88-.36,0-.14,0-.24,0-.28,0-.43-.1-.73-.3-.91-.27-.24-.67-.36-1.2-.36-.5,0-.86.09-1.1.26s-.41.48-.52.92l-1.03-.14c.09-.44.25-.8.46-1.07s.53-.48.93-.63.88-.22,1.41-.22.96.06,1.29.19.58.28.73.47.27.43.33.72c.04.18.05.5.05.97v1.41c0,.98.02,1.6.07,1.86s.13.51.27.75h-1.1c-.11-.22-.18-.47-.21-.77ZM434.74,61.35c-.38.16-.96.29-1.72.4-.43.06-.74.13-.92.21s-.32.19-.42.34-.15.32-.15.5c0,.28.11.52.32.7s.52.28.93.28.77-.09,1.08-.27.55-.42.7-.73c.11-.24.17-.59.17-1.05v-.39Z"/>
    <path class="cls-15" d="M439.72,63.53l.15.93c-.3.06-.56.09-.8.09-.38,0-.68-.06-.89-.18s-.36-.28-.45-.48-.13-.61-.13-1.25v-3.58h-.77v-.82h.77v-1.54l1.05-.63v2.17h1.06v.82h-1.06v3.64c0,.3.02.49.05.58s.1.15.18.21.21.08.36.08c.12,0,.27-.01.46-.04Z"/>
    <path class="cls-15" d="M440.73,57.09v-1.21h1.05v1.21h-1.05ZM440.73,64.47v-6.22h1.05v6.22h-1.05Z"/>
    <path class="cls-15" d="M442.98,61.36c0-1.15.32-2.01.96-2.56.54-.46,1.19-.69,1.96-.69.86,0,1.55.28,2.1.84s.81,1.33.81,2.32c0,.8-.12,1.43-.36,1.89s-.59.82-1.05,1.07-.96.38-1.5.38c-.87,0-1.57-.28-2.11-.84s-.81-1.36-.81-2.41ZM444.06,61.36c0,.8.17,1.39.52,1.79s.79.59,1.31.59.96-.2,1.31-.6.52-1.01.52-1.82c0-.77-.17-1.35-.52-1.75s-.79-.59-1.3-.59-.96.2-1.31.59-.52.99-.52,1.79Z"/>
    <path class="cls-15" d="M450.02,64.47v-6.22h.95v.88c.46-.68,1.12-1.03,1.98-1.03.38,0,.72.07,1.03.2s.55.31.71.53.27.48.33.78c.04.2.06.54.06,1.03v3.83h-1.05v-3.79c0-.43-.04-.75-.12-.96s-.23-.38-.44-.51-.45-.19-.74-.19c-.45,0-.84.14-1.16.43s-.49.83-.49,1.62v3.4h-1.05Z"/>
    <path class="cls-15" d="M406.67,78.87l-1.9-6.22h1.09l.99,3.59.37,1.34c.02-.07.12-.49.32-1.28l.99-3.64h1.08l.93,3.61.31,1.19.36-1.2,1.07-3.6h1.03l-1.95,6.22h-1.1l-.99-3.73-.24-1.06-1.26,4.79h-1.1Z"/>
    <path class="cls-15" d="M413.77,75.76c0-1.15.32-2.01.96-2.56.54-.46,1.19-.69,1.96-.69.86,0,1.55.28,2.1.84s.81,1.33.81,2.32c0,.8-.12,1.43-.36,1.89s-.59.82-1.05,1.07-.96.38-1.5.38c-.87,0-1.58-.28-2.11-.84s-.81-1.36-.81-2.41ZM414.85,75.76c0,.8.17,1.39.52,1.79s.79.59,1.31.59.96-.2,1.31-.6.52-1.01.52-1.82c0-.77-.17-1.35-.52-1.75s-.78-.59-1.3-.59-.96.2-1.31.59-.52.99-.52,1.79Z"/>
    <path class="cls-15" d="M420.8,78.87v-6.22h.95v.94c.24-.44.46-.73.67-.87s.43-.21.68-.21c.36,0,.72.11,1.08.34l-.36.98c-.26-.15-.52-.23-.77-.23-.23,0-.44.07-.62.21s-.31.33-.39.58c-.12.38-.18.79-.18,1.23v3.26h-1.05Z"/>
    <path class="cls-15" d="M424.79,78.87v-8.59h1.05v4.9l2.5-2.53h1.37l-2.38,2.31,2.62,3.91h-1.3l-2.06-3.18-.74.71v2.47h-1.05Z"/>
    <path class="cls-15" d="M431.01,78.87v-5.4h-.93v-.82h.93v-.66c0-.42.04-.73.11-.93.1-.27.28-.5.54-.67s.61-.25,1.08-.25c.3,0,.62.04.98.11l-.16.92c-.22-.04-.43-.06-.62-.06-.32,0-.55.07-.68.21s-.2.39-.2.77v.57h1.21v.82h-1.21v5.4h-1.05Z"/>
    <path class="cls-15" d="M434.05,78.87v-8.59h1.05v8.59h-1.05Z"/>
    <path class="cls-15" d="M436.32,75.76c0-1.15.32-2.01.96-2.56.54-.46,1.19-.69,1.96-.69.86,0,1.55.28,2.1.84s.81,1.33.81,2.32c0,.8-.12,1.43-.36,1.89s-.59.82-1.05,1.07-.96.38-1.5.38c-.87,0-1.58-.28-2.11-.84s-.81-1.36-.81-2.41ZM437.4,75.76c0,.8.17,1.39.52,1.79s.79.59,1.31.59.96-.2,1.31-.6.52-1.01.52-1.82c0-.77-.17-1.35-.52-1.75s-.78-.59-1.3-.59-.96.2-1.31.59-.52.99-.52,1.79Z"/>
    <path class="cls-15" d="M444.51,78.87l-1.9-6.22h1.09l.99,3.59.37,1.34c.02-.07.12-.49.32-1.28l.99-3.64h1.08l.93,3.61.31,1.19.36-1.2,1.07-3.6h1.03l-1.95,6.22h-1.1l-.99-3.73-.24-1.06-1.26,4.79h-1.1Z"/>
  </g>
  <path class="cls-6" d="M317.66,61.61l-12.16,5.44c-.25.11-.52-.07-.52-.34v-10.88c0-.27.28-.45.52-.34l12.16,5.44c.29.13.29.55,0,.68Z"/>
  <path class="cls-6" d="M395.36,61.61l-12.16,5.44c-.25.11-.52-.07-.52-.34v-10.88c0-.27.28-.45.52-.34l12.16,5.44c.29.13.29.55,0,.68Z"/>
  <path class="cls-6" d="M473.07,61.61l-12.16,5.44c-.25.11-.52-.07-.52-.34v-10.88c0-.27.28-.45.52-.34l12.16,5.44c.29.13.29.55,0,.68Z"/>
  <g>
    <circle class="cls-2" cx="350.28" cy="61.27" r="28.8"/>
    <g>
      <line class="cls-5" x1="327.15" y1="51.07" x2="374.5" y2="51.07"/>
      <line class="cls-5" x1="326.05" y1="61.27" x2="350.83" y2="61.27"/>
      <line class="cls-5" x1="337.06" y1="71.46" x2="367.03" y2="71.46"/>
    </g>
  </g>
  <g>
    <circle class="cls-2" cx="505.69" cy="61.27" r="28.8"/>
    <g>
      <g>
        <polygon class="cls-17" points="518.31 48.33 529.45 48.35 529.44 55.06 518.35 55.07 513.06 51.17 518.31 48.33"/>
        <polygon class="cls-17" points="500.61 48.33 481.93 48.35 481.95 55.06 500.55 55.07 509.43 51.17 500.61 48.33"/>
      </g>
      <polygon class="cls-17" points="509.25 70.5 495.76 70.51 495.77 77.23 509.2 77.24 515.61 73.34 509.25 70.5"/>
      <g>
        <polygon class="cls-17" points="510.37 59.41 519.37 59.43 519.36 66.14 510.4 66.16 506.13 62.26 510.37 59.41"/>
        <polygon class="cls-17" points="490.52 59.41 499.52 59.43 499.51 66.14 490.55 66.16 486.28 62.26 490.52 59.41"/>
      </g>
    </g>
  </g>
  <g>
    <path class="cls-3" d="M243.93,123.16c0-5.26,4.3-9.52,9.6-9.52h38.4c5.3,0,9.6,4.26,9.6,9.52v38.57c0,5.26-4.3,9.52-9.6,9.52h-38.4c-5.3,0-9.6-4.26-9.6-9.52v-38.57Z"/>
    <text class="cls-14" transform="translate(248.2 146.45)"><tspan x="0" y="0">BBmap</tspan></text>
  </g>
  <g>
    <path class="cls-3" d="M399.35,123.16c0-5.26,4.3-9.52,9.6-9.52h38.4c5.3,0,9.6,4.26,9.6,9.52v38.57c0,5.26-4.3,9.52-9.6,9.52h-38.4c-5.3,0-9.6-4.26-9.6-9.52v-38.57Z"/>
    <text class="cls-11" transform="translate(418.06 140.4)"><tspan x="0" y="0">JGI</tspan><tspan x="-18.72" y="15.6">readcount</tspan></text>
  </g>
  <path class="cls-6" d="M317.82,142.79l-12.16,5.44c-.25.11-.52-.07-.52-.34v-10.88c0-.27.28-.45.52-.34l12.16,5.44c.29.13.29.55,0,.68Z"/>
  <path class="cls-6" d="M395.53,142.79l-12.16,5.44c-.25.11-.52-.07-.52-.34v-10.88c0-.27.28-.45.52-.34l12.16,5.44c.29.13.29.55,0,.68Z"/>
  <path class="cls-6" d="M473.23,142.79l-12.16,5.44c-.25.11-.52-.07-.52-.34v-10.88c0-.27.28-.45.52-.34l12.16,5.44c.29.13.29.55,0,.68Z"/>
  <g>
    <circle class="cls-2" cx="350.44" cy="142.45" r="28.8"/>
    <line class="cls-7" x1="355.77" y1="130.16" x2="370.18" y2="130.16"/>
    <line class="cls-7" x1="358.67" y1="133.76" x2="370.1" y2="133.76"/>
    <g>
      <line class="cls-7" x1="331.49" y1="130.16" x2="346.26" y2="130.16"/>
      <line class="cls-7" x1="336.34" y1="133.83" x2="351.12" y2="133.83"/>
      <line class="cls-7" x1="333.25" y1="137.5" x2="345.05" y2="137.5"/>
      <line class="cls-7" x1="338.62" y1="141.17" x2="353.39" y2="141.17"/>
    </g>
    <line class="cls-7" x1="344.13" y1="155.9" x2="364.29" y2="155.9"/>
    <line class="cls-7" x1="344.76" y1="159.5" x2="357.81" y2="159.5"/>
    <line class="cls-7" x1="345.52" y1="163.1" x2="354.59" y2="163.1"/>
    <line class="cls-4" x1="330.45" y1="126.56" x2="370.43" y2="126.56"/>
    <line class="cls-4" x1="337.65" y1="152.3" x2="364.69" y2="152.3"/>
  </g>
  <g>
    <circle class="cls-2" cx="505.85" cy="142.45" r="28.8"/>
    <path class="cls-18" d="M489.05,160.06c.16-.64,1.41-.62,1.9-.83.64-.28,1.21-.73,1.73-1.26.59-.59,1.13-1.27,1.69-1.91.52-.59,1.29-1.11,1.73-1.77.45-.67.32-1.74.39-2.62.16-2.1.4-4.19.63-6.28.1-.87.2-1.73.29-2.6.16-1.39.32-2.82.87-4.06.4-.89.98-1.68,1.22-2.65.11-.45.13-.92.21-1.38.22-1.34.92-2.52,1.84-3.29.48-.4,1.01-.68,1.57-.84.76-.22,1.14.13,1.72.72.56.56,1.13,1.14,1.56,1.84,1.35,2.19,1.22,5.25,2.23,7.69.48,1.16,1.21,2.16,1.56,3.38.25.89.29,1.84.32,2.79.04,1.29.07,2.6.38,3.83s.95,2.4,1.92,2.94c0,0,.3,2.46.39,2.74.26.76.65,1.69,1.21,2.18.35.31.78.45,1.19.58.99.32,1.98.64,2.97.96.43.14.71.2,1.09-.08"/>
    <polyline class="cls-1" points="523.85 160.45 487.85 160.36 487.9 124.45 487.85 160.36"/>
  </g>
  <path class="cls-6" d="M240.1,79.12l-7.81,10.79c-.16.22-.49.2-.62-.03l-5.44-9.42c-.14-.23.02-.53.28-.56l13.25-1.37c.32-.03.53.33.34.59Z"/>
  <path class="cls-6" d="M240.26,124.59l-7.81-10.79c-.16-.22-.49-.2-.62.03l-5.44,9.42c-.14.23.02.53.28.56l13.25,1.37c.32.03.53-.33.34-.59Z"/>
  <g>
    <path class="cls-3" d="M243.77,41.98c0-5.26,4.3-9.52,9.6-9.52h38.4c5.3,0,9.6,4.26,9.6,9.52v38.57c0,5.26-4.3,9.52-9.6,9.52h-38.4c-5.3,0-9.6-4.26-9.6-9.52v-38.57Z"/>
    <text class="cls-11" transform="translate(249.52 50.83)"><tspan x="0" y="0">de novo</tspan><tspan x="-4.31" y="15.6">assembly</tspan><tspan x="-4.67" y="31.2">(SPAdes)</tspan></text>
  </g>
  <g>
    <path class="cls-3" d="M243.93,123.16c0-5.26,4.3-9.52,9.6-9.52h38.4c5.3,0,9.6,4.26,9.6,9.52v38.57c0,5.26-4.3,9.52-9.6,9.52h-38.4c-5.3,0-9.6-4.26-9.6-9.52v-38.57Z"/>
    <text class="cls-14" transform="translate(249.86 146.45)"><tspan x="0" y="0">bbmap</tspan></text>
  </g>
  <path class="cls-6" d="M240.1,79.12l-7.81,10.79c-.16.22-.49.2-.62-.03l-5.44-9.42c-.14-.23.02-.53.28-.56l13.25-1.37c.32-.03.53.33.34.59Z"/>
  <path class="cls-6" d="M240.26,124.59l-7.81-10.79c-.16-.22-.49-.2-.62.03l-5.44,9.42c-.14.23.02.53.28.56l13.25,1.37c.32.03.53-.33.34-.59Z"/>
</svg>