<?xml version="1.0" encoding="UTF-8"?>
<svg id="Layer_1" xmlns="http://www.w3.org/2000/svg" viewBox="0 0 705.6 223.2">
  <defs>
    <style>
      .cls-1 {
        stroke: #231f20;
      }

      .cls-1, .cls-2, .cls-3, .cls-4, .cls-5, .cls-6 {
        stroke-miterlimit: 10;
      }

      .cls-1, .cls-7, .cls-8 {
        fill: none;
      }

      .cls-2 {
        fill: #e78424;
      }

      .cls-2, .cls-3, .cls-5, .cls-6 {
        stroke-width: 2px;
      }

      .cls-2, .cls-5 {
        stroke: #000001;
      }

      .cls-3 {
        fill: #442d7c;
        stroke: #452d7c;
      }

      .cls-3, .cls-9, .cls-5 {
        fill-rule: evenodd;
      }

      .cls-10 {
        font-size: 13px;
        letter-spacing: 0em;
      }

      .cls-10, .cls-11, .cls-12 {
        font-family: ArialMT, Arial;
      }

      .cls-10, .cls-13, .cls-12 {
        fill: #f1f2f2;
      }

      .cls-4 {
        stroke: #524fa1;
        stroke-width: 3px;
      }

      .cls-4, .cls-14 {
        fill: #524fa1;
      }

      .cls-11 {
        fill: #000001;
        letter-spacing: 0em;
      }

      .cls-11, .cls-12 {
        font-size: 15px;
      }

      .cls-7 {
        stroke: #191919;
      }

      .cls-7, .cls-8 {
        stroke-linejoin: round;
        stroke-width: 4.5px;
      }

      .cls-9 {
        fill: #d5533a;
        isolation: isolate;
      }

      .cls-8 {
        stroke: #323232;
      }

      .cls-15 {
        fill: #cbdb2a;
      }

      .cls-5 {
        fill: #ec4924;
      }

      .cls-6 {
        fill: #00addc;
        stroke: #00addc;
      }

      .cls-16 {
        fill: #82d4f1;
      }

      .cls-12 {
        letter-spacing: 0em;
      }
    </style>
  </defs>
  <rect class="cls-16" x="0" y="0" width="705.6" height="223.2" rx="18" ry="18"/>
  <g>
    <g>
      <path class="cls-3" d="M552.95,83.32c0-5.26,4.3-9.52,9.6-9.52h38.4c5.3,0,9.6,4.26,9.6,9.52v38.57c0,5.26-4.3,9.52-9.6,9.52h-38.4c-5.3,0-9.6-4.26-9.6-9.52v-38.57Z"/>
      <text class="cls-10" transform="translate(571.67 100.55)"><tspan x="0" y="0">JGI</tspan><tspan x="-18.72" y="15.6">readcount</tspan></text>
    </g>
    <g>
      <circle class="cls-2" cx="46.13" cy="102.62" r="28.8"/>
      <g>
        <line class="cls-8" x1="32.75" y1="88.82" x2="52.71" y2="88.82"/>
        <line class="cls-8" x1="25.15" y1="98.42" x2="45.11" y2="98.42"/>
        <line class="cls-8" x1="25.15" y1="111.22" x2="45.11" y2="111.22"/>
        <line class="cls-8" x1="45.15" y1="104.02" x2="65.11" y2="104.02"/>
        <line class="cls-8" x1="43.15" y1="116.42" x2="63.11" y2="116.42"/>
        <line class="cls-8" x1="47.15" y1="95.22" x2="67.11" y2="95.22"/>
      </g>
    </g>
    <g>
      <path class="cls-3" d="M95.04,83.34c0-5.26,4.3-9.52,9.6-9.52h38.4c5.3,0,9.6,4.26,9.6,9.52v38.57c0,5.26-4.3,9.52-9.6,9.52h-38.4c-5.3,0-9.6-4.26-9.6-9.52v-38.57Z"/>
      <text class="cls-12" transform="translate(95.22 106.62)"><tspan x="0" y="0">rqcfilter2</tspan></text>
    </g>
    <path class="cls-5" d="M91.22,102.96l-12.16,5.44c-.25.11-.52-.07-.52-.34v-10.88c0-.27.28-.45.52-.34l12.16,5.44c.29.13.29.55,0,.68Z"/>
    <path class="cls-5" d="M168.92,102.96l-12.16,5.44c-.25.11-.52-.07-.52-.34v-10.88c0-.27.28-.45.52-.34l12.16,5.44c.29.13.29.55,0,.68Z"/>
    <text class="cls-11" transform="translate(31.17 144.65)"><tspan x="0" y="0">Raw</tspan><tspan x="-6.63" y="18">Reads</tspan></text>
    <text class="cls-11" transform="translate(491.16 27.98)"><tspan x="0" y="0">GFF</tspan></text>
    <text class="cls-11" transform="translate(641.6 144.63)"><tspan x="0" y="0">Read</tspan><tspan x="-5.79" y="18">Counts</tspan></text>
    <g>
      <path class="cls-9" d="M399.52,42.73c0-5.26,4.3-9.52,9.6-9.52h38.4c5.3,0,9.6,4.26,9.6,9.52v38.57c0,5.26-4.3,9.52-9.6,9.52h-38.4c-5.3,0-9.6-4.26-9.6-9.52v-38.57Z"/>
      <g>
        <path class="cls-13" d="M411.27,50.81v-8.59h1.17l4.51,6.74v-6.74h1.09v8.59h-1.17l-4.51-6.75v6.75h-1.09Z"/>
        <path class="cls-13" d="M419.89,50.81v-8.59h1.71l2.03,6.08c.19.57.32.99.41,1.27.1-.31.25-.77.46-1.38l2.06-5.98h1.53v8.59h-1.1v-7.19l-2.5,7.19h-1.03l-2.48-7.31v7.31h-1.1Z"/>
        <path class="cls-13" d="M429.9,50.81v-8.59h2.96c.67,0,1.18.04,1.53.12.49.11.91.32,1.26.62.45.38.79.87,1.02,1.47s.34,1.28.34,2.04c0,.65-.08,1.23-.23,1.73s-.35.92-.59,1.25-.5.59-.78.78-.62.33-1.03.43-.86.15-1.38.15h-3.1ZM431.04,49.8h1.83c.57,0,1.01-.05,1.33-.16s.58-.25.77-.45c.27-.27.48-.63.63-1.09s.22-1.01.22-1.66c0-.9-.15-1.59-.44-2.07s-.65-.81-1.08-.97c-.3-.12-.79-.18-1.47-.18h-1.8v6.56Z"/>
        <path class="cls-13" d="M444.67,47.8l1.14.29c-.24.93-.67,1.65-1.29,2.14s-1.38.74-2.27.74-1.68-.19-2.26-.57-1.02-.92-1.32-1.64-.45-1.48-.45-2.3c0-.89.17-1.67.51-2.34s.83-1.17,1.46-1.52,1.33-.52,2.08-.52c.86,0,1.58.22,2.17.66s.99,1.05,1.22,1.85l-1.12.26c-.2-.62-.49-1.08-.87-1.37s-.86-.43-1.43-.43c-.66,0-1.21.16-1.66.47s-.75.74-.93,1.27-.27,1.08-.27,1.65c0,.73.11,1.37.32,1.91s.54.95.99,1.22.94.4,1.46.4c.64,0,1.18-.18,1.62-.55s.74-.91.9-1.63Z"/>
        <path class="cls-13" d="M405.26,64.44c-.39.33-.77.57-1.13.7s-.75.21-1.16.21c-.68,0-1.21-.17-1.58-.5s-.55-.76-.55-1.28c0-.3.07-.58.21-.83s.32-.45.54-.61.48-.27.76-.35c.21-.05.52-.11.94-.16.85-.1,1.48-.22,1.88-.36,0-.14,0-.24,0-.28,0-.43-.1-.73-.3-.91-.27-.24-.67-.36-1.2-.36-.5,0-.86.09-1.1.26s-.41.48-.52.92l-1.03-.14c.09-.44.25-.8.46-1.07s.53-.48.93-.63.88-.22,1.41-.22.96.06,1.29.19.58.28.73.47.27.43.33.72c.04.18.05.5.05.97v1.41c0,.98.02,1.6.07,1.86s.13.51.27.75h-1.1c-.11-.22-.18-.47-.21-.77ZM405.17,62.09c-.38.16-.96.29-1.72.4-.43.06-.74.13-.92.21s-.32.19-.42.34-.15.32-.15.5c0,.28.11.52.32.7s.52.28.93.28.77-.09,1.08-.27.55-.42.7-.73c.11-.24.17-.59.17-1.05v-.39Z"/>
        <path class="cls-13" d="M407.85,65.21v-6.22h.95v.88c.46-.68,1.12-1.03,1.98-1.03.38,0,.72.07,1.03.2s.55.31.71.53.27.48.33.78c.04.2.06.54.06,1.03v3.83h-1.05v-3.79c0-.43-.04-.75-.12-.96s-.23-.38-.44-.51-.45-.19-.73-.19c-.45,0-.84.14-1.16.43s-.49.83-.49,1.62v3.4h-1.05Z"/>
        <path class="cls-13" d="M414.49,65.21v-6.22h.95v.88c.46-.68,1.12-1.03,1.98-1.03.38,0,.72.07,1.03.2s.55.31.71.53.27.48.33.78c.04.2.06.54.06,1.03v3.83h-1.05v-3.79c0-.43-.04-.75-.12-.96s-.23-.38-.44-.51-.45-.19-.74-.19c-.45,0-.84.14-1.16.43s-.49.83-.49,1.62v3.4h-1.05Z"/>
        <path class="cls-13" d="M420.75,62.1c0-1.15.32-2.01.96-2.56.54-.46,1.19-.69,1.96-.69.86,0,1.55.28,2.1.84s.81,1.33.81,2.32c0,.8-.12,1.43-.36,1.89s-.59.82-1.05,1.07-.96.38-1.5.38c-.87,0-1.57-.28-2.11-.84s-.81-1.36-.81-2.41ZM421.84,62.1c0,.8.17,1.39.52,1.79s.79.59,1.31.59.96-.2,1.31-.6.52-1.01.52-1.82c0-.77-.17-1.35-.52-1.75s-.79-.59-1.3-.59-.96.2-1.31.59-.52.99-.52,1.79Z"/>
        <path class="cls-13" d="M430.1,64.27l.15.93c-.3.06-.56.09-.8.09-.38,0-.68-.06-.89-.18s-.36-.28-.45-.48-.13-.61-.13-1.25v-3.58h-.77v-.82h.77v-1.54l1.05-.63v2.17h1.06v.82h-1.06v3.64c0,.3.02.49.05.58s.1.15.18.21.21.08.36.08c.12,0,.27-.01.46-.04Z"/>
        <path class="cls-13" d="M435.16,64.44c-.39.33-.77.57-1.13.7s-.75.21-1.16.21c-.68,0-1.21-.17-1.58-.5s-.55-.76-.55-1.28c0-.3.07-.58.21-.83s.32-.45.54-.61.48-.27.76-.35c.21-.05.52-.11.94-.16.85-.1,1.48-.22,1.88-.36,0-.14,0-.24,0-.28,0-.43-.1-.73-.3-.91-.27-.24-.67-.36-1.2-.36-.5,0-.86.09-1.1.26s-.41.48-.52.92l-1.03-.14c.09-.44.25-.8.46-1.07s.53-.48.93-.63.88-.22,1.41-.22.96.06,1.29.19.58.28.73.47.27.43.33.72c.04.18.05.5.05.97v1.41c0,.98.02,1.6.07,1.86s.13.51.27.75h-1.1c-.11-.22-.18-.47-.21-.77ZM435.08,62.09c-.38.16-.96.29-1.72.4-.43.06-.74.13-.92.21s-.32.19-.42.34-.15.32-.15.5c0,.28.11.52.32.7s.52.28.93.28.77-.09,1.08-.27.55-.42.7-.73c.11-.24.17-.59.17-1.05v-.39Z"/>
        <path class="cls-13" d="M440.06,64.27l.15.93c-.3.06-.56.09-.8.09-.38,0-.68-.06-.89-.18s-.36-.28-.45-.48-.13-.61-.13-1.25v-3.58h-.77v-.82h.77v-1.54l1.05-.63v2.17h1.06v.82h-1.06v3.64c0,.3.02.49.06.58s.1.15.18.21.2.08.36.08c.12,0,.27-.01.46-.04Z"/>
        <path class="cls-13" d="M441.07,57.83v-1.21h1.05v1.21h-1.05ZM441.07,65.21v-6.22h1.05v6.22h-1.05Z"/>
        <path class="cls-13" d="M443.31,62.1c0-1.15.32-2.01.96-2.56.54-.46,1.19-.69,1.96-.69.86,0,1.55.28,2.1.84s.81,1.33.81,2.32c0,.8-.12,1.43-.36,1.89s-.59.82-1.05,1.07-.96.38-1.5.38c-.87,0-1.58-.28-2.11-.84s-.8-1.36-.8-2.41ZM444.4,62.1c0,.8.17,1.39.52,1.79s.79.59,1.31.59.96-.2,1.31-.6.52-1.01.52-1.82c0-.77-.18-1.35-.53-1.75s-.78-.59-1.3-.59-.96.2-1.31.59-.52.99-.52,1.79Z"/>
        <path class="cls-13" d="M450.36,65.21v-6.22h.95v.88c.46-.68,1.12-1.03,1.98-1.03.38,0,.72.07,1.03.2s.55.31.71.53.27.48.33.78c.04.2.06.54.06,1.03v3.83h-1.05v-3.79c0-.43-.04-.75-.12-.96s-.23-.38-.44-.51-.45-.19-.74-.19c-.45,0-.84.14-1.16.43s-.49.83-.49,1.62v3.4h-1.05Z"/>
        <path class="cls-13" d="M407.01,79.61l-1.9-6.22h1.09l.99,3.59.37,1.34c.02-.07.12-.49.32-1.28l.99-3.64h1.08l.93,3.61.31,1.19.36-1.2,1.07-3.6h1.03l-1.95,6.22h-1.1l-.99-3.73-.24-1.06-1.26,4.79h-1.1Z"/>
        <path class="cls-13" d="M414.11,76.5c0-1.15.32-2.01.96-2.56.54-.46,1.19-.69,1.96-.69.86,0,1.55.28,2.1.84s.81,1.33.81,2.32c0,.8-.12,1.43-.36,1.89s-.59.82-1.05,1.07-.96.38-1.5.38c-.87,0-1.58-.28-2.11-.84s-.81-1.36-.81-2.41ZM415.19,76.5c0,.8.17,1.39.52,1.79s.79.59,1.31.59.96-.2,1.31-.6.52-1.01.52-1.82c0-.77-.17-1.35-.52-1.75s-.78-.59-1.3-.59-.96.2-1.31.59-.52.99-.52,1.79Z"/>
        <path class="cls-13" d="M421.14,79.61v-6.22h.95v.94c.24-.44.47-.73.67-.87s.43-.21.68-.21c.36,0,.72.11,1.08.34l-.36.98c-.26-.15-.52-.23-.77-.23-.23,0-.44.07-.62.21s-.31.33-.39.58c-.12.38-.18.79-.18,1.23v3.26h-1.05Z"/>
        <path class="cls-13" d="M425.13,79.61v-8.59h1.05v4.9l2.5-2.53h1.37l-2.38,2.31,2.62,3.91h-1.3l-2.06-3.18-.74.71v2.47h-1.05Z"/>
        <path class="cls-13" d="M431.35,79.61v-5.4h-.93v-.82h.93v-.66c0-.42.04-.73.11-.93.1-.27.28-.5.54-.67s.61-.25,1.08-.25c.3,0,.62.04.98.11l-.16.92c-.22-.04-.43-.06-.62-.06-.32,0-.55.07-.68.21s-.2.39-.2.77v.57h1.21v.82h-1.21v5.4h-1.05Z"/>
        <path class="cls-13" d="M434.38,79.61v-8.59h1.05v8.59h-1.05Z"/>
        <path class="cls-13" d="M436.66,76.5c0-1.15.32-2.01.96-2.56.54-.46,1.19-.69,1.96-.69.86,0,1.55.28,2.1.84s.81,1.33.81,2.32c0,.8-.12,1.43-.36,1.89s-.59.82-1.05,1.07-.96.38-1.5.38c-.87,0-1.58-.28-2.11-.84s-.81-1.36-.81-2.41ZM437.74,76.5c0,.8.17,1.39.52,1.79s.79.59,1.31.59.96-.2,1.31-.6.52-1.01.52-1.82c0-.77-.17-1.35-.52-1.75s-.78-.59-1.3-.59-.96.2-1.31.59-.52.99-.52,1.79Z"/>
        <path class="cls-13" d="M444.85,79.61l-1.9-6.22h1.09l.99,3.59.37,1.34c.02-.07.12-.49.32-1.28l.99-3.64h1.08l.93,3.61.31,1.19.36-1.2,1.07-3.6h1.03l-1.95,6.22h-1.1l-.99-3.73-.24-1.06-1.26,4.79h-1.1Z"/>
      </g>
    </g>
    <path class="cls-5" d="M626.85,102.94l-12.16,5.44c-.25.11-.52-.07-.52-.34v-10.88c0-.27.28-.45.52-.34l12.16,5.44c.29.13.29.55,0,.68Z"/>
    <g>
      <circle class="cls-2" cx="659.47" cy="102.6" r="28.8"/>
      <path class="cls-15" d="M642.66,120.21c.16-.64,1.41-.62,1.9-.83.64-.28,1.21-.73,1.73-1.26.59-.59,1.13-1.27,1.69-1.91.52-.59,1.29-1.11,1.73-1.77.45-.67.32-1.74.39-2.62.16-2.1.4-4.19.63-6.28.1-.87.2-1.73.29-2.6.16-1.39.32-2.82.87-4.06.4-.89.98-1.68,1.22-2.65.11-.45.13-.92.21-1.38.22-1.34.92-2.52,1.84-3.29.48-.4,1.01-.68,1.57-.84.76-.22,1.14.13,1.72.72.56.56,1.13,1.14,1.56,1.84,1.35,2.19,1.22,5.25,2.23,7.69.48,1.16,1.21,2.16,1.56,3.38.25.89.29,1.84.32,2.79.04,1.29.07,2.6.38,3.83s.95,2.4,1.92,2.94c0,0,.3,2.46.39,2.74.26.76.65,1.69,1.21,2.18.35.31.78.45,1.19.58.99.32,1.98.64,2.97.96.43.14.71.2,1.09-.08"/>
      <polyline class="cls-1" points="677.47 120.6 641.47 120.51 641.51 84.6 641.47 120.51"/>
    </g>
    <text class="cls-11" transform="translate(179.96 144.65)"><tspan x="0" y="0">Paired</tspan><tspan x="-11.62" y="18">non-rRNA</tspan><tspan x="-.02" y="36">Reads</tspan></text>
    <text class="cls-11" transform="translate(479.12 185.22)"><tspan x="0" y="0">Mapped</tspan><tspan x="5.4" y="18">Reads</tspan></text>
    <g>
      <circle class="cls-2" cx="201.55" cy="102.62" r="28.8"/>
      <g>
        <line class="cls-8" x1="188.17" y1="88.82" x2="208.12" y2="88.82"/>
        <line class="cls-8" x1="180.57" y1="98.42" x2="200.52" y2="98.42"/>
        <line class="cls-8" x1="180.57" y1="111.22" x2="200.52" y2="111.22"/>
        <line class="cls-8" x1="200.57" y1="104.02" x2="220.52" y2="104.02"/>
        <line class="cls-8" x1="198.57" y1="116.42" x2="218.52" y2="116.42"/>
        <line class="cls-8" x1="202.57" y1="95.22" x2="222.52" y2="95.22"/>
      </g>
    </g>
    <path class="cls-5" d="M324.34,102.96l-12.16,5.44c-.25.11-.52-.07-.52-.34v-10.88c0-.27.28-.45.52-.34l12.16,5.44c.29.13.29.55,0,.68Z"/>
    <g>
      <path class="cls-3" d="M250.45,83.34c0-5.26,4.3-9.52,9.6-9.52h38.4c5.3,0,9.6,4.26,9.6,9.52v38.57c0,5.26-4.3,9.52-9.6,9.52h-38.4c-5.3,0-9.6-4.26-9.6-9.52v-38.57Z"/>
      <text class="cls-10" transform="translate(265.56 90.49)"><tspan x="0" y="0">RNA</tspan><tspan x="-9.72" y="15.6">SPAdes</tspan><tspan x="-14.39" y="31.2">Assembly</tspan></text>
    </g>
    <text class="cls-11" transform="translate(331.66 144.65)"><tspan x="0" y="0">Contigs</tspan></text>
    <g>
      <circle class="cls-2" cx="356.96" cy="102.62" r="28.8"/>
      <g>
        <line class="cls-7" x1="336.77" y1="102.62" x2="377.14" y2="102.62"/>
        <line class="cls-7" x1="336.77" y1="111.12" x2="377.14" y2="111.12"/>
        <line class="cls-7" x1="336.77" y1="94.12" x2="377.14" y2="94.12"/>
      </g>
    </g>
    <path class="cls-5" d="M246.63,102.96l-12.16,5.44c-.25.11-.52-.07-.52-.34v-10.88c0-.27.28-.45.52-.34l12.16,5.44c.29.13.29.55,0,.68Z"/>
    <g>
      <path class="cls-3" d="M399.68,123.91c0-5.26,4.3-9.52,9.6-9.52h38.4c5.3,0,9.6,4.26,9.6,9.52v38.57c0,5.26-4.3,9.52-9.6,9.52h-38.4c-5.3,0-9.6-4.26-9.6-9.52v-38.57Z"/>
      <text class="cls-12" transform="translate(403.95 147.19)"><tspan x="0" y="0">BBmap</tspan></text>
    </g>
    <path class="cls-5" d="M473.57,143.53l-12.16,5.44c-.25.11-.52-.07-.52-.34v-10.88c0-.27.28-.45.52-.34l12.16,5.44c.29.13.29.55,0,.68Z"/>
    <g>
      <g>
        <circle class="cls-2" cx="506.03" cy="62.01" r="28.8"/>
        <g>
          <g>
            <polygon class="cls-14" points="518.65 49.07 529.79 49.09 529.78 55.8 518.69 55.81 513.39 51.92 518.65 49.07"/>
            <polygon class="cls-14" points="500.95 49.07 482.27 49.09 482.29 55.8 500.89 55.81 509.77 51.92 500.95 49.07"/>
          </g>
          <polygon class="cls-14" points="509.58 71.24 496.1 71.26 496.11 77.97 509.54 77.98 515.95 74.08 509.58 71.24"/>
          <g>
            <polygon class="cls-14" points="510.71 60.16 519.71 60.17 519.7 66.89 510.74 66.9 506.47 63 510.71 60.16"/>
            <polygon class="cls-14" points="490.86 60.16 499.86 60.17 499.85 66.89 490.89 66.9 486.62 63 490.86 60.16"/>
          </g>
        </g>
      </g>
      <g>
        <circle class="cls-2" cx="506.19" cy="143.19" r="28.8"/>
        <line class="cls-6" x1="511.52" y1="130.9" x2="525.93" y2="130.9"/>
        <line class="cls-6" x1="514.41" y1="134.5" x2="525.85" y2="134.5"/>
        <g>
          <line class="cls-6" x1="487.24" y1="130.9" x2="502.01" y2="130.9"/>
          <line class="cls-6" x1="492.09" y1="134.57" x2="506.87" y2="134.57"/>
          <line class="cls-6" x1="489" y1="138.24" x2="500.8" y2="138.24"/>
          <line class="cls-6" x1="494.37" y1="141.91" x2="509.14" y2="141.91"/>
        </g>
        <line class="cls-6" x1="499.88" y1="156.64" x2="520.03" y2="156.64"/>
        <line class="cls-6" x1="500.51" y1="160.24" x2="513.56" y2="160.24"/>
        <line class="cls-6" x1="501.27" y1="163.84" x2="510.34" y2="163.84"/>
        <line class="cls-4" x1="486.2" y1="127.3" x2="526.18" y2="127.3"/>
        <line class="cls-4" x1="493.4" y1="153.04" x2="520.44" y2="153.04"/>
      </g>
    </g>
    <path class="cls-5" d="M396.01,125.34l-7.81-10.79c-.16-.22-.49-.2-.62.03l-5.44,9.42c-.14.23.02.53.28.56l13.25,1.37c.32.03.53-.33.34-.59Z"/>
    <g>
      <path class="cls-3" d="M399.68,123.91c0-5.26,4.3-9.52,9.6-9.52h38.4c5.3,0,9.6,4.26,9.6,9.52v38.57c0,5.26-4.3,9.52-9.6,9.52h-38.4c-5.3,0-9.6-4.26-9.6-9.52v-38.57Z"/>
      <text class="cls-12" transform="translate(405.61 147.19)"><tspan x="0" y="0">bbmap</tspan></text>
    </g>
    <g>
      <path class="cls-5" d="M395.85,79.86l-7.81,10.79c-.16.22-.49.2-.62-.03l-5.44-9.42c-.14-.23.02-.53.28-.56l13.25-1.37c.32-.03.53.33.34.59Z"/>
      <path class="cls-5" d="M396.01,125.34l-7.81-10.79c-.16-.22-.49-.2-.62.03l-5.44,9.42c-.14.23.02.53.28.56l13.25,1.37c.32.03.53-.33.34-.59Z"/>
    </g>
    <path class="cls-5" d="M473.41,62.35l-12.16,5.44c-.25.11-.52-.07-.52-.34v-10.88c0-.27.28-.45.52-.34l12.16,5.44c.29.13.29.55,0,.68Z"/>
    <path class="cls-5" d="M395.85,79.86l-7.81,10.79c-.16.22-.49.2-.62-.03l-5.44-9.42c-.14-.23.02-.53.28-.56l13.25-1.37c.32-.03.53.33.34.59Z"/>
    <g>
      <path class="cls-5" d="M395.85,79.86l-7.81,10.79c-.16.22-.49.2-.62-.03l-5.44-9.42c-.14-.23.02-.53.28-.56l13.25-1.37c.32-.03.53.33.34.59Z"/>
      <path class="cls-5" d="M396.01,125.34l-7.81-10.79c-.16-.22-.49-.2-.62.03l-5.44,9.42c-.14.23.02.53.28.56l13.25,1.37c.32.03.53-.33.34-.59Z"/>
    </g>
    <g>
      <path class="cls-5" d="M548.94,85.42l-13.25-1.37c-.27-.03-.42-.32-.28-.56l5.44-9.42c.14-.23.47-.25.62-.03l7.81,10.79c.19.26-.02.62-.34.59Z"/>
      <path class="cls-5" d="M548.94,119.78l-13.25,1.37c-.27.03-.42.32-.28.56l5.44,9.42c.14.23.47.25.62.03l7.81-10.79c.19-.26-.02-.62-.34-.59Z"/>
    </g>
  </g>
</svg>